Patient4_TMGait_0pt6_01_right_16_EMG.mot
version=1
nRows=37
nColumns=33
inDegrees=no
endheader
time	1LAddLong	2LGlutMax	3LGlutMed	4LIliopsoas	5LSemiMemb	6LBicFemLong	7LRecFem	8LVastMed	9LVastLat	10LGasMed	11LTibAnt	12lTibPost	13LPeroneusLong	14LSol	15LExtDigLong	16LFlexDigLong	17RAddLong	18RGlutMax	19RGlutMed	20RIliopsoas	21RSemiMemb	22RBicFemLong	23RRecFem	24RVastMed	25RVastLat	26RGasMed	27RTibAnt	28RTibPost	29RPeroneusLong	30RSol	31RExtDigLong	32RFlexDigLong
19.305	0.010071	-0.65247	0.12024	0.012512	0.013123	-0.016785	0.17593	0.01236	0.098724	-0.07309	-0.019531	-0.058441	-0.12161	-0.13107	0.007782	0.018005	-0.021057	-0.25314	0.49667	-0.10605	-0.040283	0.3125	-0.21927	0.034332	-0.042877	0.012665	-0.090027	-0.007477	-0.88547	-0.50613	-0.005188	-0.007324
19.306	0.010529	-0.62118	0.13611	0.014954	0.008087	-0.024567	0.22415	0.005798	0.085144	-0.071869	-0.007172	-0.036621	-0.094147	0.21484	0.016479	0.055542	-0.020447	-0.25574	0.23972	-0.092773	0.018921	0.27496	-0.25192	0.11398	-0.000153	0.015259	-0.086975	-0.019531	-0.10544	0.042877	-0.004578	-0.007629
19.307	0.003967	-0.51346	0.15747	0.004578	0.013733	-0.002594	0.26886	0.016785	0.079651	-0.046082	0.000763	-0.0177	-0.060425	0.15167	0.029297	0.0177	-0.032349	-0.14618	0.26733	-0.068512	0.014038	0.3743	-0.1413	0.087891	0.022125	0.001984	-0.15213	-0.021667	2.3129	-0.10147	-0.00473	-0.010681
19.308	-0.001984	-0.43762	0.18417	0.006409	0.016632	-0.0177	0.26459	0.019836	0.072174	-0.074158	0.006714	0.001221	-0.090942	-0.012665	0.030365	0.004883	-0.036316	-0.23346	0.18372	-0.031586	-0.096283	0.24017	0.053101	-0.010376	-0.027618	-0.021057	-0.023193	0.003204	0.56244	-0.2327	-0.003204	-0.006866
19.309	0.002441	-0.38666	0.20126	-0.012207	0.018463	-0.013885	0.29373	0.011139	0.077362	-0.068054	0.005188	0.005646	-0.12589	0.074921	0.023041	0.000763	-0.044098	-0.34271	-0.24887	0.12421	-0.24399	-0.23773	0.1001	-0.083466	-0.12299	0.007935	0.11856	-0.039368	-0.37689	-0.33463	-0.004883	-0.009613
19.31	-0.005646	-0.33402	0.23514	0.001831	0.014801	0.010376	0.29419	0.00946	0.06485	-0.095825	0.006104	0.006409	-0.17899	0.11658	0.034027	0.00946	-0.066223	-0.44144	-0.56747	0.15106	-0.13123	-0.3537	0.065002	-0.096741	-0.11871	0.027466	0.16754	-0.13275	0.20981	0.10819	-0.001678	-0.004578
19.311	0.00824	-0.33066	0.25131	0.015259	0.016174	-0.001221	0.29556	0.007782	0.078125	-0.0737	0.002747	0.014038	-0.18051	0.17471	0.021362	0.035553	-0.048676	-0.65903	-0.8252	0.1474	-0.10834	-0.11902	0.11078	0.13275	-0.066833	0.037842	0.21286	-0.17777	-0.37613	0.11917	-0.000458	0.001068
19.312	-0.007324	-0.27069	0.27283	0.021362	0.009308	0.004883	0.24399	0.003204	0.11093	-0.087433	0.011902	0.012054	-0.16724	0.15503	0.015411	0.028839	0.01297	-0.63294	-0.14969	-0.015869	-0.080261	0.1445	0.21713	0.075073	0.1152	0.000916	0.073547	-0.097504	-0.53467	-0.09079	-0.00061	-0.003662
19.313	-0.004425	-0.21149	0.30594	0.008087	0.021057	-0.011749	0.15305	0.00351	0.15274	-0.08316	0.001984	0.017395	-0.13199	0.15793	0.012512	0.023499	0.019989	-0.63248	0.29098	-0.016632	-0.12238	0.2594	0.24094	0.12802	0.40207	-0.00412	-0.077057	0.076599	0.053864	-0.52994	-0.006104	-0.019684
19.314	-0.007629	-0.16342	0.31921	0.012665	0.013275	0.016327	0.12894	0.006866	0.1474	-0.09613	-0.000916	0.021973	-0.1236	0.10361	-0.011292	0.018921	-0.009155	-0.69397	0.30655	-0.075378	-0.17685	0.20737	0.20187	0.2475	0.41336	-0.011902	0.1474	0.012665	-1.7795	-0.37506	-0.007782	-0.019226
19.315	-0.008087	-0.12253	0.31372	0.003204	-0.00351	0.00824	0.094757	0.002289	0.14801	-0.097656	-0.008545	0.01236	-0.13412	0.068359	-0.02655	0.038147	-0.032196	-0.79178	0.45288	0.032806	0.039368	0.070648	0.21973	0.24262	0.23392	-0.036469	0.079346	-0.003357	1.6982	-0.32898	-0.004883	-0.024567
19.316	-0.010223	-0.11902	0.31647	0.022736	0.003357	-0.004425	0.074463	0.003662	0.13123	-0.10956	-0.008698	0.002747	-0.15076	0.058746	-0.022888	0.042877	-0.024261	-1.0959	0.49133	0.17899	0.29816	-0.077362	0.33356	0.24674	0.081635	-0.010071	0.032196	-0.059357	0.46646	-0.17349	-0.007019	-0.023193
19.317	-0.011292	-0.10391	0.31464	0.023346	0.008545	-0.010071	0.042725	0.006714	0.1387	-0.060425	-0.010376	-0.009155	-0.14282	0.062256	-0.00351	0.037079	0.003967	-1.2601	-0.25757	0.18051	0.24078	-0.17197	0.50049	-0.069122	-0.19043	0.001221	0.18295	0.12039	-1.2431	0.36499	-0.005951	-0.014496
19.318	-0.006866	-0.053864	0.35095	0.007629	0.00061	-0.006561	0.064697	0.003662	0.14374	-0.049286	-0.034485	-0.013123	-0.13596	0.095825	0.000153	0.04715	0.032043	-1.2729	0.015259	0.054779	-0.093842	-0.49835	0.62134	-0.25757	-0.45029	-0.01709	0.12283	0.2829	0.48798	0.53925	-0.007324	-0.010376
19.319	-0.00824	0.005341	0.37842	-0.010376	0.010681	-0.014801	0.14496	0.006256	0.14603	0.25192	-0.073853	-0.027924	-0.13138	0.035858	0.004425	0.042114	0.044556	-1.2181	-0.22751	0.025177	-0.30975	-0.63004	0.69946	-0.33569	-0.5661	0.006409	-0.18478	0.10666	1.5364	-0.10635	-0.003662	-0.009003
19.32	-0.004425	0.040131	0.35446	-0.018616	0.012512	-0.007782	0.15091	0.010223	0.13733	0.46265	-0.066071	-0.085449	-0.12436	0.054474	0.004578	0.049744	0.045471	-1.2611	-0.89966	0.032501	-0.46051	-0.64301	0.51819	-0.35812	-0.4007	0.021515	-0.12848	0.008392	1.4363	0.082397	-0.005493	0.000916
19.321	-0.011597	0.080566	0.34134	-0.010376	0.010681	-0.001373	0.098419	0.003357	0.13138	0.31158	-0.06134	-0.49652	-0.12054	0.03006	0.002289	0.05127	-0.035248	-1.3847	-0.54382	-0.010986	-0.21729	-0.38681	0.4538	-0.093079	-0.14191	-0.014648	0.042419	0.065613	0.34729	0.052948	-0.006256	0.005493
19.322	-0.007782	0.072784	0.31632	0.009003	0.000916	-0.005493	0.025635	-0.000305	0.12573	0.19669	-0.063477	-0.77972	-0.11902	0.019684	0.019379	0.052795	-0.09552	-1.6193	-0.19272	-0.08667	0.26871	-0.047302	0.068359	0.045471	-0.080719	-0.055542	0.073547	0.007477	-0.27557	0.10208	-0.005341	-0.010834
19.323	-0.018616	0.097809	0.30701	0.004425	-0.007629	-0.015564	-0.058746	-0.013275	0.11505	-0.10101	-0.021973	-0.88516	-0.12619	0	0.053253	0.032959	-0.038757	-1.7024	-0.64651	-0.089722	0.28061	-0.12711	-0.045319	0.07019	-0.081177	-0.050964	-0.074768	-0.040131	-0.28153	-0.099335	-0.009003	-0.005798
19.324	0.001221	0.098419	0.26932	0.01236	-0.011597	-0.03006	-0.11337	-0.009003	0.088348	-0.54718	0.082855	-1.0255	-0.16541	0.029449	0.053101	0.036774	0.024109	-1.832	-1.1328	-0.08255	-0.054932	-0.34393	0.080566	-0.049286	-0.10315	-0.067749	-0.099487	-0.038605	-1.1804	-0.12924	-0.007019	-0.00473
19.325	-0.007019	0.14542	0.24368	0.006866	-0.006256	-0.017395	-0.12695	0.01358	0.066223	-0.42954	0.13748	-0.91095	-0.1767	0.041046	0.067139	0.03891	0.05249	-1.8878	-1.1151	-0.012512	0.014954	-0.55115	0.11276	0.029755	-0.042877	-0.088348	-0.26016	-0.045471	-1.1856	-0.16403	-0.005493	-0.000916
19.326	-0.00351	0.19898	0.21286	0.003967	0.003662	-0.033417	0.007477	0.008087	0.059357	-0.059662	0.046539	-0.66895	-0.12909	0.041809	0.048065	0.17944	0.027161	-1.8671	-1.0709	0.059052	0.10986	-0.67337	0.14145	0.090027	0.028839	-0.12192	-0.26825	-0.049744	-0.003662	0.099487	-0.000763	-0.010376
19.327	-0.006256	0.2919	0.19196	-0.000153	0.010986	-0.000458	0.14465	0.014343	0.042877	0.35263	0.011597	-0.49179	-0.11383	0.029144	0.005035	-0.32364	-0.017242	-1.7999	-0.33127	0.053253	0.25604	-0.50369	0.25635	0.099182	-0.007019	-0.15961	-0.041504	-0.053711	-0.39963	0.098267	-0.002747	-0.010071
19.328	0.003967	0.31738	0.15869	0.014954	0.005493	0.027161	0.21988	0.016785	0.032806	0.37384	0.001221	-0.40375	-0.11505	0.020752	-0.011597	0.00885	-0.03067	-1.7532	-0.13626	0.079498	0.14526	-0.40176	0.30319	0.069122	-0.029144	-0.080109	0.11368	-0.056	-0.58945	0.050812	-0.003967	-0.003662
19.329	-0.006409	0.35629	0.12848	0.020752	0.002136	-0.017242	0.24353	0.006561	0.019073	-0.007629	0.025787	-0.2536	-0.1001	0.06134	-0.069275	0.14557	-0.004578	-1.6261	0.071411	0.052032	-0.35095	-0.25192	0.30594	0.066681	0.012054	-0.093842	-0.055542	-0.047302	0.345	-0.21896	-0.00351	-0.009155
19.33	0.006561	0.35187	0.10101	0.014648	0.006256	-0.063019	0.1561	0.001373	0.0177	0.21454	0.023956	-0.10178	-0.076752	0.077667	-0.072937	0.06073	0.02533	-1.6533	0.019226	-0.013275	-0.37903	-0.25146	0.39261	0.037384	0.004883	0.05249	-0.032043	-0.045471	0.043182	-0.13886	-0.006561	-0.010681
19.331	0.006409	0.35111	0.080872	0.002747	0.006256	-0.080566	0.15411	-0.001678	-0.007935	0.14572	0.050812	-0.006561	-0.071564	0.059814	-0.11017	0.058899	0.016174	-1.5823	0.15366	0.007629	-0.46493	-0.13657	0.41412	0.12802	0.16449	0.27039	-0.013275	-0.052643	-0.49393	-0.31952	-0.001984	-0.018005
19.332	0.005646	0.36057	0.061188	-0.002747	0.012512	-0.037994	0.12146	-0.007324	-0.011749	0.15366	-0.006409	0.070648	-0.096588	0.015259	-0.074158	0.035706	-0.076599	-1.5462	0.24963	0.031433	0.015259	0.072021	0.2533	0.23041	0.41443	0.22049	0.063019	0.074005	-0.29511	-0.55466	-0.007172	-0.012512
19.333	0.012512	0.39475	0.038452	-0.006714	0.015106	-0.010986	0.18662	0.007324	-0.010986	0.6398	-0.026398	0.1831	-0.11368	0.011597	0.026855	0.036316	-0.063171	-1.4098	0.028839	0.049286	0.51819	0.20172	0.18585	0.21988	0.28793	0.12619	0.091705	0.029449	0.32989	-0.32974	-0.005493	-0.015411
19.334	-0.002899	0.42877	0.016174	0.003357	0.016022	0.015259	0.25528	0.01236	-0.019836	0.63416	-0.052643	0.21057	-0.15625	0.059967	-0.020905	0.039978	-0.027771	-1.2973	-0.439	0.045013	0.28305	0.21286	0.15213	0.11444	-0.009003	0.094299	0.12299	0.025177	0.67841	0.13886	-0.007629	-0.019836
19.335	0.000763	0.46493	0.02594	0.006866	0.023346	0.033264	0.26703	0.021362	-0.047913	-0.76385	-0.007324	0.24765	-0.20767	0.060425	0.010681	0.04715	-0.019226	-1.1658	-0.61325	0.046082	-0.08316	0.008392	0.073547	0.016937	-0.15701	0.029602	0.073547	-0.022736	0.896	0.17395	-0.00351	-0.018768
19.336	0.001678	0.47134	-0.001068	0.008545	0.015411	0.021667	0.18906	0.018616	-0.058136	-0.89661	0.12817	0.27481	-0.24384	0.11643	0.44525	0.043945	-0.023193	-1.1375	-1.1005	0.097198	-0.080414	-0.18723	0.018311	-0.11292	-0.1471	-0.040131	0.053558	-0.26169	0.19775	0.11047	-0.006104	-0.0177
19.337	0.010376	0.46356	-0.043488	0.010223	0.008087	0.0177	0.06134	0.010529	-0.038605	-0.49194	0.42282	0.29251	-0.20126	0.14862	0.19898	0.036011	-0.043793	-1.1348	-1.5958	0.086212	-0.15579	-0.354	-0.22156	-0.063477	-0.12497	0.002289	0.17288	-0.16922	0.06897	-0.19775	-0.003357	-0.031738
19.338	0.014648	0.48889	-0.059052	0.007324	0.00885	0.024567	-0.015869	0.008087	-0.028076	-0.083923	0.46799	0.35706	-0.11307	0.17242	0.10727	0.033264	-0.02121	-1.0371	-1.5503	-0.00412	-0.074463	-0.52994	-0.41351	0.009308	-0.28839	0.032043	0.26443	0.14328	-0.53177	-0.37689	-0.002899	-0.022888
19.339	0.011444	0.4921	-0.052032	-0.004272	0.00946	0.027161	-0.054016	0.003052	-0.003357	-0.075684	0.28168	0.33752	0.029907	0.15915	0.271	0.027618	-0.015869	-0.86258	-0.86746	-0.05127	0.036316	-0.55725	-0.33768	-0.042114	-0.37338	0.02594	0.21622	0.17731	0.67581	-0.38803	-0.003357	-0.014801
19.34	0.012512	0.4921	-0.058136	0.006561	0.018005	0.03006	-0.080261	0.015411	0.00412	-0.159	0.03952	0.29923	0.068359	0.15884	0.65445	0.015869	-0.004883	-0.80017	-0.35828	-0.10346	-0.032654	-0.54535	-0.12039	-0.031586	-0.18585	0.029144	0.1973	0.073853	2.2983	0.06485	-0.004425	-0.017242
19.341	0.011444	0.46219	-0.046082	0.00412	0.015259	0.04303	-0.06012	0.009766	0.004425	-0.14435	-0.33173	0.29831	0.04364	0.16098	0.9317	0.017242	-0.005951	-0.7193	0.25909	-0.11612	-0.028839	-0.38269	0.006409	-0.053253	-0.054626	0.023041	0.31067	0.021515	1.5825	0.38773	-0.004578	-0.018463
